shantell_organic--extrabold.ufo
<glyph name="parenleft" format="2">
	<unicode hex="0028"/>
	<advance width="519"/>
	<image fileName="parenleft.png" xScale="2.5963710802" yScale="2.5963710802" xOffset="-138.7459756108" yOffset="-555.3762351949" color="0,0,0,0.18426"/>
	<outline>
		<contour>
			<point x="441" y="527.2415262831" type="curve" smooth="yes"/>
			<point x="341" y="409.2415262831"/>
			<point x="245" y="247.2415262831"/>
			<point x="245" y="57.2415262831" type="curve" smooth="yes"/>
			<point x="245" y="-104.7584737169"/>
			<point x="319" y="-212.7584737169"/>
			<point x="439" y="-252.7584737169" type="curve" smooth="yes"/>
			<point x="483" y="-267.7584737169"/>
			<point x="499" y="-280.7584737169"/>
			<point x="499" y="-311.7584737169" type="curve" smooth="yes"/>
			<point x="499" y="-360.7584737169"/>
			<point x="448" y="-391.7584737169"/>
			<point x="402" y="-391.7584737169" type="curve" smooth="yes"/>
			<point x="381" y="-391.7584737169"/>
			<point x="366" y="-389.7584737169"/>
			<point x="321" y="-371.7584737169" type="curve" smooth="yes"/>
			<point x="186" y="-315.7584737169"/>
			<point x="69" y="-187.7584737169"/>
			<point x="69" y="57.2415262831" type="curve" smooth="yes"/>
			<point x="69" y="289.2415262831"/>
			<point x="181" y="491.2415262831"/>
			<point x="310" y="644.2415262831" type="curve" smooth="yes"/>
			<point x="333" y="672.2415262831"/>
			<point x="358" y="682.2415262831"/>
			<point x="383" y="682.2415262831" type="curve" smooth="yes"/>
			<point x="428" y="682.2415262831"/>
			<point x="474" y="636.2415262831"/>
			<point x="474" y="591.2415262831" type="curve" smooth="yes"/>
			<point x="474" y="571.2415262831"/>
			<point x="464" y="554.2415262831"/>
		</contour>
	</outline>
</glyph>
<glyph name="asterisk" format="2">
	<unicode hex="002A"/>
	<advance width="520"/>
	<image fileName="asterisk000000000000001.png" xScale="0.2628236287" yScale="0.2628236287" xOffset="-8.6573841831" yOffset="213.6021023181" color="0,0,0,0.2098"/>
	<outline>
		<contour>
			<point x="291" y="847.8612782244"/>
			<point x="334" y="789.8612782244"/>
			<point x="334" y="651.8612782244" type="curve" smooth="yes"/>
			<point x="334" y="580.8612782244"/>
			<point x="330" y="466.8612782244"/>
			<point x="346" y="379.8612782244" type="curve" smooth="yes"/>
			<point x="354" y="335.8612782244"/>
			<point x="336" y="307.8612782244"/>
			<point x="288" y="307.8612782244" type="curve" smooth="yes"/>
			<point x="253" y="307.8612782244"/>
			<point x="234" y="327.8612782244"/>
			<point x="228" y="355.8612782244" type="curve" smooth="yes"/>
			<point x="209" y="448.8612782244"/>
			<point x="214" y="574.8612782244"/>
			<point x="214" y="651.8612782244" type="curve" smooth="yes"/>
			<point x="214" y="758.8612782244"/>
			<point x="183" y="761.8612782244"/>
			<point x="183" y="802.8612782244" type="curve" smooth="yes"/>
			<point x="183" y="830.8612782244"/>
			<point x="198" y="847.8612782244"/>
			<point x="233" y="847.8612782244" type="curve" smooth="yes"/>
		</contour>
		<contour>
			<point x="455" y="677.8612782244" type="curve" smooth="yes"/>
			<point x="399" y="600.8612782244"/>
			<point x="249" y="521.8612782244"/>
			<point x="185" y="422.8612782244" type="curve" smooth="yes"/>
			<point x="172" y="402.8612782244"/>
			<point x="158" y="395.8612782244"/>
			<point x="137" y="395.8612782244" type="curve" smooth="yes"/>
			<point x="105" y="395.8612782244"/>
			<point x="75" y="424.8612782244"/>
			<point x="75" y="456.8612782244" type="curve" smooth="yes"/>
			<point x="75" y="467.8612782244"/>
			<point x="76" y="480.8612782244"/>
			<point x="95" y="505.8612782244" type="curve" smooth="yes"/>
			<point x="156" y="586.8612782244"/>
			<point x="319" y="685.8612782244"/>
			<point x="365" y="752.8612782244" type="curve" smooth="yes"/>
			<point x="381" y="776.8612782244"/>
			<point x="397" y="789.8612782244"/>
			<point x="421" y="789.8612782244" type="curve" smooth="yes"/>
			<point x="457" y="789.8612782244"/>
			<point x="473" y="763.8612782244"/>
			<point x="473" y="732.8612782244" type="curve" smooth="yes"/>
			<point x="473" y="709.8612782244"/>
			<point x="466" y="693.8612782244"/>
		</contour>
		<contour>
			<point x="129" y="720.8612782244" type="curve" smooth="yes"/>
			<point x="201" y="681.8612782244"/>
			<point x="346" y="633.8612782244"/>
			<point x="465" y="569.8612782244" type="curve" smooth="yes"/>
			<point x="485" y="559.8612782244"/>
			<point x="497" y="540.8612782244"/>
			<point x="497" y="515.8612782244" type="curve" smooth="yes"/>
			<point x="497" y="483.8612782244"/>
			<point x="480" y="454.8612782244"/>
			<point x="444" y="454.8612782244" type="curve" smooth="yes"/>
			<point x="425" y="454.8612782244"/>
			<point x="417" y="458.8612782244"/>
			<point x="378" y="479.8612782244" type="curve" smooth="yes"/>
			<point x="288" y="527.8612782244"/>
			<point x="141" y="577.8612782244"/>
			<point x="71" y="617.8612782244" type="curve" smooth="yes"/>
			<point x="32" y="640.8612782244"/>
			<point x="23" y="672.8612782244"/>
			<point x="23" y="693.8612782244" type="curve" smooth="yes"/>
			<point x="23" y="725.8612782244"/>
			<point x="42" y="741.8612782244"/>
			<point x="70" y="741.8612782244" type="curve" smooth="yes"/>
			<point x="90" y="741.8612782244"/>
			<point x="100" y="735.8612782244"/>
		</contour>
	</outline>
</glyph>
<glyph name="comma" format="2">
	<unicode hex="002C"/>
	<advance width="320"/>
	<outline>
		<contour>
			<point x="270" y="22.2277812226"/>
			<point x="223" y="65.1118412625"/>
			<point x="149" y="65.1118412625" type="curve" smooth="yes"/>
			<point x="95" y="65.1118412625"/>
			<point x="70" y="29.1118412625"/>
			<point x="70" y="-25.8881587375" type="curve" smooth="yes"/>
			<point x="70" y="-52.8881587375"/>
			<point x="80" y="-125.8881587375"/>
			<point x="52" y="-202.8881587375" type="curve" smooth="yes"/>
			<point x="41.2456901304" y="-231.5663183898"/>
			<point x="37" y="-250.4469822669"/>
			<point x="37" y="-268.8881587375" type="curve" smooth="yes"/>
			<point x="37" y="-301.1798254042"/>
			<point x="55" y="-318.8881587375"/>
			<point x="93" y="-318.8881587375" type="curve" smooth="yes"/>
			<point x="138" y="-318.8881587375"/>
			<point x="185.7902388555" y="-283.6296301898"/>
			<point x="212" y="-241.8881587375" type="curve" smooth="yes"/>
			<point x="246.5376602016" y="-186.0184142938"/>
			<point x="270" y="-109.9184617678"/>
			<point x="270" y="-40.8881587375" type="curve" smooth="yes"/>
		</contour>
	</outline>
</glyph>
<glyph name="period" format="2">
	<unicode hex="002E"/>
	<advance width="320"/>
	<outline>
		<contour>
			<point x="183" y="-194.0717013163" type="curve" smooth="yes"/>
			<point x="247" y="-194.0717013163"/>
			<point x="280" y="-160.0717013163"/>
			<point x="280" y="-121.0717013163" type="curve" smooth="yes"/>
			<point x="280" y="-50.0717013163"/>
			<point x="239" y="18.9282986837"/>
			<point x="135" y="18.9282986837" type="curve" smooth="yes"/>
			<point x="83" y="18.9282986837"/>
			<point x="41" y="-15.0717013163"/>
			<point x="41" y="-77.0717013163" type="curve" smooth="yes"/>
			<point x="41" y="-156.0717013163"/>
			<point x="89" y="-194.0717013163"/>
		</contour>
	</outline>
</glyph>
<glyph name="slash" format="2">
	<unicode hex="002F"/>
	<advance width="455"/>
	<outline>
		<contour>
			<point x="506" y="699.0112496818"/>
			<point x="545" y="609.0112496818"/>
			<point x="487" y="517.0112496818" type="curve" smooth="yes"/>
			<point x="353" y="303.0112496818"/>
			<point x="258" y="66.0112496818"/>
			<point x="225" y="-220.9887503182" type="curve" smooth="yes"/>
			<point x="219" y="-277.9887503182"/>
			<point x="187" y="-308.9887503182"/>
			<point x="137" y="-308.9887503182" type="curve" smooth="yes"/>
			<point x="74" y="-308.9887503182"/>
			<point x="39" y="-257.9887503182"/>
			<point x="46" y="-193.9887503182" type="curve" smooth="yes"/>
			<point x="80" y="99.0112496818"/>
			<point x="205" y="441.0112496818"/>
			<point x="325" y="614.0112496818" type="curve" smooth="yes"/>
			<point x="365" y="672.0112496818"/>
			<point x="392" y="699.0112496818"/>
			<point x="434" y="699.0112496818" type="curve" smooth="yes"/>
		</contour>
	</outline>
</glyph>
<glyph name="zero" format="2">
	<unicode hex="0030"/>
	<advance width="700"/>
	<outline>
		<contour>
			<point x="305" y="654.0465635081" type="curve" smooth="yes"/>
			<point x="214.9369143539" y="592.5400659937"/>
			<point x="184" y="519.7145797024"/>
			<point x="184" y="417.0465635081" type="curve" smooth="yes"/>
			<point x="184" y="347.2283816899"/>
			<point x="227.305785124" y="297.0465635081"/>
			<point x="315" y="297.0465635081" type="curve" smooth="yes"/>
			<point x="410.7894736842" y="297.0465635081"/>
			<point x="515" y="399.0465635081"/>
			<point x="515" y="584.0465635081" type="curve" smooth="yes"/>
			<point x="515" y="652.0465635081"/>
			<point x="486.5238095238" y="706.0465635081"/>
			<point x="400" y="706.0465635081" type="curve" smooth="yes"/>
			<point x="320" y="706.0465635081"/>
			<point x="285" y="674.0465635081"/>
			<point x="247" y="642.0465635081" type="curve" smooth="yes"/>
			<point x="228" y="626.0465635081"/>
			<point x="208" y="613.0465635081"/>
			<point x="189" y="613.0465635081" type="curve" smooth="yes"/>
			<point x="122" y="613.0465635081"/>
			<point x="94" y="675.0465635081"/>
			<point x="94" y="715.0465635081" type="curve" smooth="yes"/>
			<point x="94" y="779.0465635081"/>
			<point x="202" y="878.0465635081"/>
			<point x="400" y="878.0465635081" type="curve" smooth="yes"/>
			<point x="600.9784172662" y="878.0465635081"/>
			<point x="688" y="766.0465635081"/>
			<point x="688" y="584.0465635081" type="curve" smooth="yes"/>
			<point x="688" y="275.0465635081"/>
			<point x="498.9030470914" y="126.0465635081"/>
			<point x="317" y="126.0465635081" type="curve" smooth="yes"/>
			<point x="134.0202702703" y="126.0465635081"/>
			<point x="11" y="214.0714745401"/>
			<point x="11" y="417.0465635081" type="curve" smooth="yes"/>
			<point x="11" y="662.4669290433"/>
			<point x="190.0204081633" y="790.0465635081"/>
			<point x="266" y="790.0465635081" type="curve" smooth="yes"/>
			<point x="315" y="790.0465635081"/>
			<point x="334" y="770.0465635081"/>
			<point x="334" y="716.0465635081" type="curve" smooth="yes"/>
			<point x="334" y="695.0465635081"/>
			<point x="324" y="667.0465635081"/>
		</contour>
	</outline>
</glyph>
<glyph name="one" format="2">
	<unicode hex="0031"/>
	<advance width="700"/>
	<outline>
		<contour>
			<point x="161" y="85.2345171977" type="curve" smooth="yes"/>
			<point x="233" y="85.2345171977"/>
			<point x="418.6808510638" y="92.2345171977"/>
			<point x="528" y="92.2345171977" type="curve" smooth="yes"/>
			<point x="622" y="92.2345171977"/>
			<point x="658" y="52.2345171977"/>
			<point x="660" y="-2.7654828023" type="curve" smooth="yes"/>
			<point x="662" y="-48.7654828023"/>
			<point x="632" y="-81.7654828023"/>
			<point x="541" y="-81.7654828023" type="curve" smooth="yes"/>
			<point x="325" y="-81.7654828023"/>
			<point x="236" y="-90.7654828023"/>
			<point x="188" y="-90.7654828023" type="curve" smooth="yes"/>
			<point x="68" y="-90.7654828023"/>
			<point x="45" y="-37.3849518288"/>
			<point x="45" y="13.2345171977" type="curve" smooth="yes"/>
			<point x="45" y="55.5202314834"/>
			<point x="79" y="85.2345171977"/>
		</contour>
		<contour>
			<point x="121" y="529.2345171977" type="curve" smooth="yes"/>
			<point x="197" y="537.2345171977"/>
			<point x="260" y="566.2345171977"/>
			<point x="302" y="604.2345171977" type="curve" smooth="yes"/>
			<point x="321" y="621.2345171977"/>
			<point x="343" y="634.2345171977"/>
			<point x="375" y="634.2345171977" type="curve" smooth="yes"/>
			<point x="447" y="634.2345171977"/>
			<point x="498.6738295556" y="568.1670502888"/>
			<point x="477" y="497.2345171977" type="curve" smooth="yes"/>
			<point x="429" y="317.2345171977"/>
			<point x="433" y="117.2345171977"/>
			<point x="433" y="81.2345171977" type="curve" smooth="yes"/>
			<point x="433" y="43.2345171977"/>
			<point x="410" y="14.2345171977"/>
			<point x="367" y="14.2345171977" type="curve" smooth="yes"/>
			<point x="300" y="14.2345171977"/>
			<point x="260" y="67.2345171977"/>
			<point x="260" y="133.2345171977" type="curve" smooth="yes"/>
			<point x="260" y="242.2345171977"/>
			<point x="275" y="354.2345171977"/>
			<point x="296" y="455.2345171977" type="curve"/>
			<point x="328" y="427.2345171977" type="line"/>
			<point x="287.9930727825" y="393.3825018598"/>
			<point x="214" y="369.2345171977"/>
			<point x="151" y="369.2345171977" type="curve" smooth="yes"/>
			<point x="81" y="369.2345171977"/>
			<point x="49" y="416.213898641"/>
			<point x="49" y="462.2345171977" type="curve" smooth="yes"/>
			<point x="49" y="495.1706874105"/>
			<point x="70" y="523.2345171977"/>
		</contour>
	</outline>
</glyph>
<glyph name="three" format="2">
	<unicode hex="0033"/>
	<advance width="700"/>
	<outline>
		<contour>
			<point x="361" y="864.884181735" type="curve" smooth="yes"/>
			<point x="552" y="864.884181735"/>
			<point x="644" y="778.5138113646"/>
			<point x="644" y="644.884181735" type="curve" smooth="yes"/>
			<point x="644" y="553.9260979027"/>
			<point x="594.0881568933" y="455.8169420442"/>
			<point x="423" y="427.884181735" type="curve"/>
			<point x="417" y="466.884181735" type="line"/>
			<point x="636.1759783243" y="464.7248124904"/>
			<point x="688" y="380.0205453714"/>
			<point x="688" y="270.884181735" type="curve" smooth="yes"/>
			<point x="688" y="73.9508484017"/>
			<point x="499.2408759124" y="-9.115818265"/>
			<point x="257" y="-9.115818265" type="curve"/>
			<point x="92" y="-9.115818265"/>
			<point x="51" y="44.884181735"/>
			<point x="51" y="123.884181735" type="curve" smooth="yes"/>
			<point x="51" y="167.884181735"/>
			<point x="68" y="203.884181735"/>
			<point x="112" y="203.884181735" type="curve" smooth="yes"/>
			<point x="153" y="203.884181735"/>
			<point x="156" y="163.884181735"/>
			<point x="230" y="163.884181735" type="curve" smooth="yes"/>
			<point x="401" y="163.884181735"/>
			<point x="515" y="199.5790969892"/>
			<point x="515" y="271.884181735" type="curve" smooth="yes"/>
			<point x="515" y="327.503229354"/>
			<point x="474.3725490196" y="344.884181735"/>
			<point x="291" y="344.884181735" type="curve" smooth="yes"/>
			<point x="238" y="344.884181735"/>
			<point x="211" y="390.884181735"/>
			<point x="211" y="439.884181735" type="curve" smooth="yes"/>
			<point x="211" y="465.884181735"/>
			<point x="223" y="483.884181735"/>
			<point x="253" y="489.884181735" type="curve" smooth="yes"/>
			<point x="395.0568560457" y="519.4793600779"/>
			<point x="463" y="572.3052343666"/>
			<point x="463" y="634.884181735" type="curve" smooth="yes"/>
			<point x="463" y="681.7972252133"/>
			<point x="442.525" y="699.884181735"/>
			<point x="372" y="699.884181735" type="curve" smooth="yes"/>
			<point x="219.536121673" y="699.884181735"/>
			<point x="199" y="628.884181735"/>
			<point x="126" y="628.884181735" type="curve" smooth="yes"/>
			<point x="85" y="628.884181735"/>
			<point x="42" y="664.884181735"/>
			<point x="42" y="718.884181735" type="curve" smooth="yes"/>
			<point x="42" y="790.884181735"/>
			<point x="176" y="864.884181735"/>
		</contour>
	</outline>
</glyph>
<glyph name="four" format="2">
	<unicode hex="0034"/>
	<advance width="700"/>
	<outline>
		<contour>
			<point x="327" y="-48.2095971927" type="curve" smooth="yes"/>
			<point x="327" y="188.2496058434"/>
			<point x="372" y="407.0341839018"/>
			<point x="372" y="553.7904028073" type="curve" smooth="yes"/>
			<point x="372" y="568.7904028073"/>
			<point x="369" y="580.7904028073"/>
			<point x="358" y="604.7904028073" type="curve"/>
			<point x="411" y="547.7904028073" type="line"/>
			<point x="267.4732022225" y="458.9404803736"/>
			<point x="160.5586238191" y="320.7932195839"/>
			<point x="80" y="138.7904028073" type="curve"/>
			<point x="27" y="208.7904028073" type="line"/>
			<point x="60" y="195.7904028073"/>
			<point x="68" y="192.7904028073"/>
			<point x="93" y="192.7904028073" type="curve" smooth="yes"/>
			<point x="285.568627451" y="192.7904028073"/>
			<point x="444.1219512195" y="236.7904028073"/>
			<point x="703" y="236.7904028073" type="curve" smooth="yes"/>
			<point x="752" y="236.7904028073"/>
			<point x="792" y="184.7904028073"/>
			<point x="792" y="128.7904028073" type="curve" smooth="yes"/>
			<point x="792" y="90.7904028073"/>
			<point x="774" y="61.7904028073"/>
			<point x="729" y="61.7904028073" type="curve" smooth="yes"/>
			<point x="434.4929577465" y="61.7904028073"/>
			<point x="265.5008375209" y="16.7904028073"/>
			<point x="32" y="16.7904028073" type="curve" smooth="yes"/>
			<point x="-39" y="16.7904028073"/>
			<point x="-85" y="73.7904028073"/>
			<point x="-85" y="121.7904028073" type="curve" smooth="yes"/>
			<point x="-85" y="170.7904028073"/>
			<point x="-77" y="225.7904028073"/>
			<point x="-27" y="306.7904028073" type="curve" smooth="yes"/>
			<point x="132.0835707319" y="565.1187699591"/>
			<point x="319" y="709.7904028073"/>
			<point x="415" y="709.7904028073" type="curve" smooth="yes"/>
			<point x="508" y="709.7904028073"/>
			<point x="551" y="637.7904028073"/>
			<point x="551" y="575.7904028073" type="curve" smooth="yes"/>
			<point x="551" y="350.6587630844"/>
			<point x="502" y="182.1506178611"/>
			<point x="502" y="-57.2095971927" type="curve" smooth="yes"/>
			<point x="502" y="-105.2095971927"/>
			<point x="512" y="-126.2095971927"/>
			<point x="512" y="-152.2095971927" type="curve" smooth="yes"/>
			<point x="512" y="-192.2095971927"/>
			<point x="476" y="-216.2095971927"/>
			<point x="422" y="-216.2095971927" type="curve" smooth="yes"/>
			<point x="354" y="-216.2095971927"/>
			<point x="327" y="-166.2095971927"/>
		</contour>
	</outline>
</glyph>
<glyph name="seven" format="2">
	<unicode hex="0037"/>
	<advance width="700"/>
	<outline>
		<contour>
			<point x="172" y="488.3121985079" type="curve" smooth="yes"/>
			<point x="285.9679144385" y="488.3121985079"/>
			<point x="386.5882352941" y="516.3121985079"/>
			<point x="556" y="516.3121985079" type="curve" smooth="yes"/>
			<point x="635" y="516.3121985079"/>
			<point x="682" y="469.3121985079"/>
			<point x="682" y="411.3121985079" type="curve" smooth="yes"/>
			<point x="682" y="375.3121985079"/>
			<point x="657" y="351.3121985079"/>
			<point x="611" y="351.3121985079" type="curve" smooth="yes"/>
			<point x="387.4245524297" y="351.3121985079"/>
			<point x="307.4296675192" y="323.3121985079"/>
			<point x="210" y="323.3121985079" type="curve" smooth="yes"/>
			<point x="153" y="323.3121985079"/>
			<point x="111" y="370.3121985079"/>
			<point x="111" y="420.3121985079" type="curve" smooth="yes"/>
			<point x="111" y="464.3121985079"/>
			<point x="130" y="488.3121985079"/>
		</contour>
		<contour>
			<point x="52" y="767.3121985079" type="curve" smooth="yes"/>
			<point x="151" y="804.3121985079"/>
			<point x="295.1998732257" y="832.3121985079"/>
			<point x="376" y="832.3121985079" type="curve" smooth="yes"/>
			<point x="553.0196078431" y="832.3121985079"/>
			<point x="620" y="757.3121985079"/>
			<point x="620" y="647.3121985079" type="curve" smooth="yes"/>
			<point x="620" y="487.3121985079"/>
			<point x="440" y="357.3121985079"/>
			<point x="440" y="192.3121985079" type="curve" smooth="yes"/>
			<point x="440" y="131.3121985079"/>
			<point x="421" y="113.3121985079"/>
			<point x="373" y="113.3121985079" type="curve" smooth="yes"/>
			<point x="315" y="113.3121985079"/>
			<point x="267" y="142.3121985079"/>
			<point x="267" y="205.3121985079" type="curve" smooth="yes"/>
			<point x="267" y="362.3121985079"/>
			<point x="443" y="558.3121985079"/>
			<point x="443" y="628.3121985079" type="curve" smooth="yes"/>
			<point x="443" y="657.3121985079"/>
			<point x="427" y="668.3121985079"/>
			<point x="383" y="668.3121985079" type="curve" smooth="yes"/>
			<point x="224" y="668.3121985079"/>
			<point x="156.309352518" y="616.3121985079"/>
			<point x="109" y="616.3121985079" type="curve" smooth="yes"/>
			<point x="67.4772727273" y="616.3121985079"/>
			<point x="22" y="669.3121985079"/>
			<point x="22" y="715.3121985079" type="curve" smooth="yes"/>
			<point x="22" y="737.3121985079"/>
			<point x="32" y="760.3121985079"/>
		</contour>
	</outline>
</glyph>
<glyph name="colon" format="2">
	<unicode hex="003A"/>
	<advance width="320"/>
	<outline>
		<contour>
			<point x="163" y="386.9375732448" type="curve" smooth="yes"/>
			<point x="240" y="386.9375732448"/>
			<point x="280" y="430.252641738"/>
			<point x="280" y="479.9375732448" type="curve" smooth="yes"/>
			<point x="280" y="540.7947161019"/>
			<point x="241.8275862069" y="599.9375732448"/>
			<point x="145" y="599.9375732448" type="curve" smooth="yes"/>
			<point x="87.4680851064" y="599.9375732448"/>
			<point x="41" y="565.9375732448"/>
			<point x="41" y="503.9375732448" type="curve" smooth="yes"/>
			<point x="41" y="427.9375732448"/>
			<point x="86" y="386.9375732448"/>
		</contour>
		<contour>
			<point x="173" y="57.9375732448" type="curve" smooth="yes"/>
			<point x="243" y="57.9375732448"/>
			<point x="280" y="101.252641738"/>
			<point x="280" y="150.9375732448" type="curve" smooth="yes"/>
			<point x="280" y="211.7947161019"/>
			<point x="240.6965517241" y="270.9375732448"/>
			<point x="141" y="270.9375732448" type="curve" smooth="yes"/>
			<point x="85.6808510638" y="270.9375732448"/>
			<point x="41" y="236.9375732448"/>
			<point x="41" y="174.9375732448" type="curve" smooth="yes"/>
			<point x="41" y="98.9375732448"/>
			<point x="89" y="57.9375732448"/>
		</contour>
	</outline>
</glyph>
<glyph name="at" format="2">
	<unicode hex="0040"/>
	<advance width="924"/>
	<outline>
		<contour>
			<point x="534" y="406.3026899427" type="curve" smooth="yes"/>
			<point x="493" y="393.3026899427"/>
			<point x="454" y="355.3026899427"/>
			<point x="454" y="321.3026899427" type="curve" smooth="yes"/>
			<point x="454" y="303.3026899427"/>
			<point x="461" y="287.3026899427"/>
			<point x="475" y="275.3026899427" type="curve"/>
			<point x="353" y="374.3026899427" type="line"/>
			<point x="376" y="360.3026899427"/>
			<point x="393" y="357.3026899427"/>
			<point x="411" y="357.3026899427" type="curve" smooth="yes"/>
			<point x="427" y="357.3026899427"/>
			<point x="435" y="370.3026899427"/>
			<point x="459" y="398.3026899427" type="curve" smooth="yes"/>
			<point x="489" y="435.3026899427"/>
			<point x="523" y="460.3026899427"/>
			<point x="575" y="460.3026899427" type="curve" smooth="yes"/>
			<point x="610" y="460.3026899427"/>
			<point x="640.9634442539" y="447.0353302171"/>
			<point x="663" y="415.3026899427" type="curve" smooth="yes"/>
			<point x="694.182820345" y="369.1521158321"/>
			<point x="704.0540540541" y="369.3026899427"/>
			<point x="712" y="369.3026899427" type="curve"/>
			<point x="717" y="369.3026899427"/>
			<point x="720" y="377.3026899427"/>
			<point x="720" y="383.3026899427" type="curve" smooth="yes"/>
			<point x="720" y="488.3026899427"/>
			<point x="635" y="658.3026899427"/>
			<point x="515" y="658.3026899427" type="curve" smooth="yes"/>
			<point x="354" y="658.3026899427"/>
			<point x="204" y="512.3026899427"/>
			<point x="204" y="363.3026899427" type="curve" smooth="yes"/>
			<point x="204" y="194.3026899427"/>
			<point x="358" y="110.3026899427"/>
			<point x="515" y="110.3026899427" type="curve" smooth="yes"/>
			<point x="653" y="110.3026899427"/>
			<point x="709" y="148.3026899427"/>
			<point x="749" y="148.3026899427" type="curve" smooth="yes"/>
			<point x="802" y="148.3026899427"/>
			<point x="833" y="109.3026899427"/>
			<point x="833" y="63.3026899427" type="curve" smooth="yes"/>
			<point x="833" y="29.3026899427"/>
			<point x="813" y="-2.6973100573"/>
			<point x="775" y="-17.6973100573" type="curve" smooth="yes"/>
			<point x="705" y="-44.6973100573"/>
			<point x="636" y="-58.6973100573"/>
			<point x="515" y="-58.6973100573" type="curve" smooth="yes"/>
			<point x="254" y="-58.6973100573"/>
			<point x="35" y="102.3026899427"/>
			<point x="35" y="363.3026899427" type="curve" smooth="yes"/>
			<point x="35" y="592.3026899427"/>
			<point x="262" y="828.3026899427"/>
			<point x="515" y="828.3026899427" type="curve" smooth="yes"/>
			<point x="761" y="828.3026899427"/>
			<point x="889" y="540.3026899427"/>
			<point x="889" y="383.3026899427" type="curve" smooth="yes"/>
			<point x="889" y="262.3026899427"/>
			<point x="817" y="200.3026899427"/>
			<point x="733" y="200.3026899427" type="curve" smooth="yes"/>
			<point x="682.7037037037" y="200.3026899427"/>
			<point x="615.3027107596" y="210.298817429"/>
			<point x="539" y="319.3026899427" type="curve"/>
			<point x="592" y="316.3026899427" type="line"/>
			<point x="559" y="247.3026899427"/>
			<point x="511" y="207.3026899427"/>
			<point x="433" y="207.3026899427" type="curve" smooth="yes"/>
			<point x="352" y="207.3026899427"/>
			<point x="300" y="247.3026899427"/>
			<point x="300" y="343.3026899427" type="curve" smooth="yes"/>
			<point x="300" y="458.3026899427"/>
			<point x="427" y="571.3026899427"/>
			<point x="504" y="571.3026899427" type="curve" smooth="yes"/>
			<point x="560" y="571.3026899427"/>
			<point x="589" y="534.3026899427"/>
			<point x="589" y="487.3026899427" type="curve" smooth="yes"/>
			<point x="589" y="452.3026899427"/>
			<point x="568" y="418.3026899427"/>
		</contour>
	</outline>
</glyph>
<glyph name="B" format="2">
	<unicode hex="0042"/>
	<advance width="633"/>
	<outline>
		<contour>
			<point x="254" y="241.9253857458"/>
			<point x="228" y="284.9253857458"/>
			<point x="228" y="427.9253857458" type="curve" smooth="yes"/>
			<point x="228" y="505.9253857458"/>
			<point x="230" y="536.9253857458"/>
			<point x="237" y="615.9253857458" type="curve" smooth="yes"/>
			<point x="242" y="660.9253857458"/>
			<point x="204" y="709.9253857458"/>
			<point x="151" y="709.9253857458" type="curve" smooth="yes"/>
			<point x="127" y="709.9253857458"/>
			<point x="94" y="693.9253857458"/>
			<point x="85" y="659.9253857458" type="curve" smooth="yes"/>
			<point x="61" y="564.9253857458"/>
			<point x="55" y="518.9253857458"/>
			<point x="55" y="411.9253857458" type="curve" smooth="yes"/>
			<point x="55" y="232.9253857458"/>
			<point x="130" y="70.9253857458"/>
			<point x="257" y="70.9253857458" type="curve" smooth="yes"/>
			<point x="383.2517482517" y="70.9253857458"/>
			<point x="563" y="133.9253857458"/>
			<point x="563" y="302.9253857458" type="curve" smooth="yes"/>
			<point x="563" y="369.9253857458"/>
			<point x="515" y="442.9253857458"/>
			<point x="372" y="458.9253857458" type="curve"/>
			<point x="381" y="403.9253857458" type="line"/>
			<point x="555" y="466.9253857458"/>
			<point x="589" y="543.9253857458"/>
			<point x="589" y="605.9253857458" type="curve" smooth="yes"/>
			<point x="589" y="748.9253857458"/>
			<point x="425.3165266106" y="792.9253857458"/>
			<point x="212" y="792.9253857458" type="curve" smooth="yes"/>
			<point x="75.1213872832" y="792.9253857458"/>
			<point x="27" y="748.9253857458"/>
			<point x="27" y="669.9253857458" type="curve" smooth="yes"/>
			<point x="27" y="630.9253857458"/>
			<point x="49" y="604.9253857458"/>
			<point x="91" y="604.9253857458" type="curve" smooth="yes"/>
			<point x="111" y="604.9253857458"/>
			<point x="160" y="608.9253857458"/>
			<point x="206" y="608.9253857458" type="curve" smooth="yes"/>
			<point x="395.6885245902" y="608.9253857458"/>
			<point x="409" y="602.9253857458"/>
			<point x="409" y="581.9253857458" type="curve" smooth="yes"/>
			<point x="409" y="545.9253857458"/>
			<point x="211.9512576" y="489.0543164887"/>
			<point x="159" y="473.9253857458" type="curve" smooth="yes"/>
			<point x="138" y="467.9253857458"/>
			<point x="120" y="439.9253857458"/>
			<point x="120" y="416.9253857458" type="curve" smooth="yes"/>
			<point x="120" y="367.9253857458"/>
			<point x="146" y="332.9253857458"/>
			<point x="183" y="333.9253857458" type="curve" smooth="yes"/>
			<point x="325.571956748" y="337.2410126469"/>
			<point x="393" y="324.9253857458"/>
			<point x="393" y="284.9253857458" type="curve" smooth="yes"/>
			<point x="393" y="273.9253857458"/>
			<point x="303.9813084112" y="241.9253857458"/>
			<point x="266" y="241.9253857458" type="curve" smooth="yes"/>
		</contour>
	</outline>
</glyph>
<glyph name="J" format="2">
	<unicode hex="004A"/>
	<advance width="655"/>
	<outline>
		<contour>
			<point x="308" y="191.0253749568" type="curve" smooth="yes"/>
			<point x="472" y="191.0253749568"/>
			<point x="559" y="268.0253749568"/>
			<point x="559" y="439.0253749568" type="curve" smooth="yes"/>
			<point x="559" y="512.7762055216"/>
			<point x="533.5897122423" y="647.5913312623"/>
			<point x="507" y="720.0253749568" type="curve" smooth="yes"/>
			<point x="483" y="785.0253749568"/>
			<point x="442" y="803.0253749568"/>
			<point x="367" y="805.0253749568" type="curve" smooth="yes"/>
			<point x="333" y="805.0253749568"/>
			<point x="305" y="773.0253749568"/>
			<point x="319" y="736.0253749568" type="curve" smooth="yes"/>
			<point x="350.9662446803" y="660.2197090008"/>
			<point x="381" y="533.0081928262"/>
			<point x="381" y="465.0253749568" type="curve" smooth="yes"/>
			<point x="381" y="395.0253749568"/>
			<point x="363" y="364.0253749568"/>
			<point x="308" y="364.0253749568" type="curve" smooth="yes"/>
			<point x="254" y="364.0253749568"/>
			<point x="239" y="386.0253749568"/>
			<point x="239" y="407.0253749568" type="curve" smooth="yes"/>
			<point x="239" y="433.0253749568"/>
			<point x="265" y="455.0253749568"/>
			<point x="265" y="482.0253749568" type="curve" smooth="yes"/>
			<point x="265" y="509.0253749568"/>
			<point x="248" y="523.0253749568"/>
			<point x="215" y="523.0253749568" type="curve" smooth="yes"/>
			<point x="110" y="523.0253749568"/>
			<point x="70" y="431.0253749568"/>
			<point x="70" y="374.0253749568" type="curve" smooth="yes"/>
			<point x="70" y="260.0253749568"/>
			<point x="167" y="191.0253749568"/>
		</contour>
		<contour>
			<point x="172" y="655.0253749568" type="curve" smooth="yes"/>
			<point x="263.8343195266" y="655.0253749568"/>
			<point x="409.6213017751" y="673.0253749568"/>
			<point x="560" y="673.0253749568" type="curve" smooth="yes"/>
			<point x="606" y="673.0253749568"/>
			<point x="630" y="694.0253749568"/>
			<point x="630" y="733.0253749568" type="curve" smooth="yes"/>
			<point x="630" y="822.0253749568"/>
			<point x="542" y="841.0253749568"/>
			<point x="464" y="841.0253749568" type="curve" smooth="yes"/>
			<point x="341.5784753363" y="841.0253749568"/>
			<point x="279.1434977578" y="829.0253749568"/>
			<point x="191" y="829.0253749568" type="curve" smooth="yes"/>
			<point x="150" y="829.0253749568"/>
			<point x="110" y="842.0253749568"/>
			<point x="61" y="842.0253749568" type="curve" smooth="yes"/>
			<point x="29" y="842.0253749568"/>
			<point x="11" y="820.0253749568"/>
			<point x="11" y="786.0253749568" type="curve" smooth="yes"/>
			<point x="11" y="690.0253749568"/>
			<point x="106" y="655.0253749568"/>
		</contour>
	</outline>
</glyph>
<glyph name="L" format="2">
	<unicode hex="004C"/>
	<advance width="526"/>
	<outline>
		<contour>
			<point x="290" y="-71.2908865459" type="curve" smooth="yes"/>
			<point x="346.0386740331" y="-71.2908865459"/>
			<point x="414.2232090877" y="-61.0807580074"/>
			<point x="451" y="-30.2908865459" type="curve" smooth="yes"/>
			<point x="486" y="-0.2908865459"/>
			<point x="499" y="38.7091134541"/>
			<point x="499" y="80.7091134541" type="curve" smooth="yes"/>
			<point x="499" y="115.7091134541"/>
			<point x="477" y="149.7091134541"/>
			<point x="445" y="149.7091134541" type="curve" smooth="yes"/>
			<point x="411.5238095238" y="149.7091134541"/>
			<point x="384.2142857143" y="101.7091134541"/>
			<point x="297" y="101.7091134541" type="curve" smooth="yes"/>
			<point x="272.2" y="101.7091134541"/>
			<point x="263" y="114.0091134541"/>
			<point x="263" y="142.7091134541" type="curve" smooth="yes"/>
			<point x="263" y="168.2410283477"/>
			<point x="280" y="235.2623049435"/>
			<point x="280" y="292.7091134541" type="curve" smooth="yes"/>
			<point x="280" y="352.7091134541"/>
			<point x="242.7924528302" y="432.7091134541"/>
			<point x="164" y="432.7091134541" type="curve" smooth="yes"/>
			<point x="116" y="432.7091134541"/>
			<point x="97" y="402.7091134541"/>
			<point x="97" y="360.7091134541" type="curve" smooth="yes"/>
			<point x="97" y="308.7091134541"/>
			<point x="81" y="242.7091134541"/>
			<point x="81" y="168.7091134541" type="curve" smooth="yes"/>
			<point x="81" y="13.7091134541"/>
			<point x="153.732" y="-71.2908865459"/>
		</contour>
	</outline>
</glyph>
<glyph name="O" format="2">
	<unicode hex="004F"/>
	<advance width="766"/>
	<outline>
		<contour>
			<point x="344" y="269.8787116334" type="curve" smooth="yes"/>
			<point x="292.1886170255" y="230.2582423"/>
			<point x="280" y="208.3680733355"/>
			<point x="280" y="171.8787116334" type="curve" smooth="yes"/>
			<point x="280" y="120.2076590018"/>
			<point x="318" y="94.8787116334"/>
			<point x="367" y="94.8787116334" type="curve" smooth="yes"/>
			<point x="436" y="94.8787116334"/>
			<point x="496" y="133.3205720985"/>
			<point x="496" y="181.8787116334" type="curve" smooth="yes"/>
			<point x="496" y="233.5736268876"/>
			<point x="444.8695652174" y="303.8787116334"/>
			<point x="391" y="303.8787116334" type="curve" smooth="yes"/>
			<point x="374.5" y="303.8787116334"/>
			<point x="369" y="293.8787116334"/>
			<point x="369" y="279.8787116334" type="curve" smooth="yes"/>
			<point x="369" y="256.5453783001"/>
			<point x="347.1428571429" y="244.8787116334"/>
			<point x="324" y="244.8787116334" type="curve" smooth="yes"/>
			<point x="274.9541284404" y="244.8787116334"/>
			<point x="225" y="284.1633831662"/>
			<point x="225" y="361.8787116334" type="curve" smooth="yes"/>
			<point x="225" y="416.8787116334"/>
			<point x="279" y="466.8787116334"/>
			<point x="374" y="466.8787116334" type="curve" smooth="yes"/>
			<point x="539" y="466.8787116334"/>
			<point x="666" y="319.8787116334"/>
			<point x="666" y="181.8787116334" type="curve" smooth="yes"/>
			<point x="666" y="26.8787116334"/>
			<point x="530" y="-74.1212883666"/>
			<point x="367" y="-74.1212883666" type="curve" smooth="yes"/>
			<point x="208" y="-74.1212883666"/>
			<point x="110" y="13.8787116334"/>
			<point x="110" y="171.8787116334" type="curve" smooth="yes"/>
			<point x="110" y="311.8787116334"/>
			<point x="246.1013215859" y="403.8787116334"/>
			<point x="277" y="403.8787116334" type="curve" smooth="yes"/>
			<point x="295" y="403.8787116334"/>
			<point x="328" y="392.8787116334"/>
			<point x="342" y="374.8787116334" type="curve" smooth="yes"/>
			<point x="365" y="344.8787116334"/>
			<point x="370" y="290.8787116334"/>
		</contour>
	</outline>
</glyph>
<glyph name="R" format="2">
	<unicode hex="0052"/>
	<advance width="756"/>
	<outline>
		<contour>
			<point x="131" y="568.1183219135" type="curve" smooth="yes"/>
			<point x="75" y="568.1183219135"/>
			<point x="55" y="527.1183219135"/>
			<point x="68" y="481.1183219135" type="curve" smooth="yes"/>
			<point x="91.6150608221" y="397.6222140067"/>
			<point x="101.5633077753" y="339.2518377507"/>
			<point x="99" y="246.1183219135" type="curve"/>
			<point x="64" y="173.1183219135"/>
			<point x="48" y="108.1183219135"/>
			<point x="48" y="59.1183219135" type="curve" smooth="yes"/>
			<point x="48" y="-35.8816780865"/>
			<point x="123" y="-79.8816780865"/>
			<point x="176" y="-79.8816780865" type="curve" smooth="yes"/>
			<point x="217" y="-79.8816780865"/>
			<point x="233" y="-63.8816780865"/>
			<point x="233" y="-22.8816780865" type="curve" smooth="yes"/>
			<point x="233" y="402.1183219135"/>
			<point x="479" y="468.1183219135"/>
			<point x="508" y="468.1183219135" type="curve" smooth="yes"/>
			<point x="521" y="468.1183219135"/>
			<point x="526" y="464.1183219135"/>
			<point x="526" y="453.1183219135" type="curve" smooth="yes"/>
			<point x="526" y="411.1183219135"/>
			<point x="445" y="304.1183219135"/>
			<point x="210" y="256.1183219135" type="curve" smooth="yes"/>
			<point x="171" y="248.1183219135"/>
			<point x="156" y="170.1183219135"/>
			<point x="188" y="133.1183219135" type="curve" smooth="yes"/>
			<point x="302" y="6.1183219135"/>
			<point x="576.3617021277" y="-78.8816780865"/>
			<point x="662" y="-78.8816780865" type="curve" smooth="yes"/>
			<point x="740" y="-78.8816780865"/>
			<point x="794" y="-35.8816780865"/>
			<point x="794" y="16.1183219135" type="curve" smooth="yes"/>
			<point x="794" y="47.1183219135"/>
			<point x="764" y="66.1183219135"/>
			<point x="700" y="81.1183219135" type="curve" smooth="yes"/>
			<point x="618.7206094844" y="100.8576024673"/>
			<point x="521" y="131.1183219135"/>
			<point x="424" y="174.1183219135" type="curve"/>
			<point x="588" y="227.1183219135"/>
			<point x="700" y="338.3480516432"/>
			<point x="700" y="462.1183219135" type="curve" smooth="yes"/>
			<point x="700" y="563.1183219135"/>
			<point x="648" y="643.1183219135"/>
			<point x="520" y="643.1183219135" type="curve" smooth="yes"/>
			<point x="403" y="643.1183219135"/>
			<point x="294" y="569.1183219135"/>
			<point x="230" y="457.1183219135" type="curve"/>
			<point x="253" y="457.1183219135" type="line"/>
			<point x="236" y="528.1183219135"/>
			<point x="200" y="568.1183219135"/>
		</contour>
	</outline>
</glyph>
<glyph name="T" format="2">
	<unicode hex="0054"/>
	<advance width="645"/>
	<outline>
		<contour>
			<point x="227" y="689.712194068" type="curve" smooth="yes"/>
			<point x="203" y="407.712194068"/>
			<point x="200" y="316.712194068"/>
			<point x="229" y="206.712194068" type="curve" smooth="yes"/>
			<point x="252" y="130.712194068"/>
			<point x="297" y="108.712194068"/>
			<point x="350" y="108.712194068" type="curve" smooth="yes"/>
			<point x="391" y="108.712194068"/>
			<point x="412" y="125.712194068"/>
			<point x="412" y="174.712194068" type="curve" smooth="yes"/>
			<point x="412" y="213.712194068"/>
			<point x="382" y="288.712194068"/>
			<point x="404" y="635.712194068" type="curve" smooth="yes"/>
			<point x="409" y="723.712194068"/>
			<point x="382" y="761.712194068"/>
			<point x="299" y="761.712194068" type="curve" smooth="yes"/>
			<point x="258" y="761.712194068"/>
			<point x="230" y="731.712194068"/>
		</contour>
		<contour>
			<point x="133" y="664.712194068" type="curve" smooth="yes"/>
			<point x="244" y="653.712194068"/>
			<point x="348" y="653.712194068"/>
			<point x="484" y="653.712194068" type="curve" smooth="yes"/>
			<point x="552" y="653.712194068"/>
			<point x="623" y="687.712194068"/>
			<point x="623" y="770.712194068" type="curve" smooth="yes"/>
			<point x="623" y="807.712194068"/>
			<point x="603" y="832.712194068"/>
			<point x="561" y="832.712194068" type="curve" smooth="yes"/>
			<point x="478" y="832.712194068"/>
			<point x="429" y="821.712194068"/>
			<point x="365" y="821.712194068" type="curve" smooth="yes"/>
			<point x="273" y="821.712194068"/>
			<point x="188" y="831.712194068"/>
			<point x="75" y="831.712194068" type="curve" smooth="yes"/>
			<point x="37" y="831.712194068"/>
			<point x="22" y="804.712194068"/>
			<point x="22" y="772.712194068" type="curve" smooth="yes"/>
			<point x="22" y="706.712194068"/>
			<point x="49" y="672.712194068"/>
		</contour>
	</outline>
</glyph>
<glyph name="U" format="2">
	<unicode hex="0055"/>
	<advance width="679"/>
	<outline>
		<contour>
			<point x="360" y="219.2153689928" type="curve" smooth="yes"/>
			<point x="525" y="219.2153689928"/>
			<point x="610" y="322.2153689928"/>
			<point x="610" y="468.2153689928" type="curve" smooth="yes"/>
			<point x="610" y="521.2153689928"/>
			<point x="601" y="563.0052849592"/>
			<point x="601" y="609.2153689928" type="curve" smooth="yes"/>
			<point x="601" y="649.2153689928"/>
			<point x="610" y="714.2153689928"/>
			<point x="610" y="727.2153689928" type="curve" smooth="yes"/>
			<point x="610" y="772.2153689928"/>
			<point x="574" y="801.2153689928"/>
			<point x="529" y="801.2153689928" type="curve" smooth="yes"/>
			<point x="467" y="801.2153689928"/>
			<point x="423" y="764.2153689928"/>
			<point x="423" y="704.2153689928" type="curve" smooth="yes"/>
			<point x="423" y="617.9255139203"/>
			<point x="431" y="567.2153689928"/>
			<point x="431" y="475.2153689928" type="curve" smooth="yes"/>
			<point x="431" y="423.2153689928"/>
			<point x="405" y="397.2153689928"/>
			<point x="353" y="397.2153689928" type="curve" smooth="yes"/>
			<point x="293" y="397.2153689928"/>
			<point x="265" y="431.2153689928"/>
			<point x="265" y="504.2153689928" type="curve" smooth="yes"/>
			<point x="265" y="551.2153689928"/>
			<point x="274" y="617.4599733093"/>
			<point x="274" y="663.2153689928" type="curve" smooth="yes"/>
			<point x="274" y="765.2153689928"/>
			<point x="233" y="805.2153689928"/>
			<point x="154" y="805.2153689928" type="curve" smooth="yes"/>
			<point x="126" y="805.2153689928"/>
			<point x="79" y="794.2153689928"/>
			<point x="79" y="756.2153689928" type="curve" smooth="yes"/>
			<point x="79" y="728.2153689928"/>
			<point x="86" y="722.2153689928"/>
			<point x="86" y="668.2153689928" type="curve" smooth="yes"/>
			<point x="86" y="629.1407421271"/>
			<point x="81" y="571.2153689928"/>
			<point x="81" y="514.2153689928" type="curve" smooth="yes"/>
			<point x="81" y="339.2153689928"/>
			<point x="163" y="219.2153689928"/>
		</contour>
	</outline>
</glyph>
<glyph name="X" format="2">
	<unicode hex="0058"/>
	<advance width="696"/>
	<outline>
		<contour>
			<point x="300" y="430.1975075446" type="curve" smooth="yes"/>
			<point x="391" y="262.1975075446"/>
			<point x="516" y="221.1975075446"/>
			<point x="579" y="134.1975075446" type="curve" smooth="yes"/>
			<point x="663" y="19.1975075446"/>
			<point x="606" y="-65.8024924554"/>
			<point x="520" y="-65.8024924554" type="curve" smooth="yes"/>
			<point x="479" y="-65.8024924554"/>
			<point x="445" y="-45.8024924554"/>
			<point x="405" y="14.1975075446" type="curve" smooth="yes"/>
			<point x="334" y="116.1975075446"/>
			<point x="161" y="228.1975075446"/>
			<point x="117" y="319.1975075446" type="curve" smooth="yes"/>
			<point x="67" y="418.1975075446"/>
			<point x="96" y="489.1975075446"/>
			<point x="200" y="489.1975075446" type="curve" smooth="yes"/>
			<point x="258" y="489.1975075446"/>
			<point x="281" y="466.1975075446"/>
		</contour>
		<contour>
			<point x="551" y="324.1975075446" type="curve" smooth="yes"/>
			<point x="462.6044439638" y="229.4311006229"/>
			<point x="317" y="99.1975075446"/>
			<point x="253" y="-2.8024924554" type="curve" smooth="yes"/>
			<point x="228" y="-42.8024924554"/>
			<point x="209" y="-58.8024924554"/>
			<point x="168" y="-58.8024924554" type="curve" smooth="yes"/>
			<point x="105" y="-58.8024924554"/>
			<point x="72" y="32.1975075446"/>
			<point x="141" y="141.1975075446" type="curve" smooth="yes"/>
			<point x="237.9336995166" y="294.6758651126"/>
			<point x="352.90102524" y="396.5943817483"/>
			<point x="411" y="449.1975075446" type="curve" smooth="yes"/>
			<point x="445" y="481.1975075446"/>
			<point x="467" y="493.1975075446"/>
			<point x="501" y="493.1975075446" type="curve" smooth="yes"/>
			<point x="565" y="493.1975075446"/>
			<point x="618" y="394.1975075446"/>
		</contour>
	</outline>
</glyph>
<glyph name="Y" format="2">
	<unicode hex="0059"/>
	<advance width="636"/>
	<outline>
		<contour>
			<point x="548" y="312.5078299101" type="curve" smooth="yes"/>
			<point x="436.3211672597" y="227.1597788728"/>
			<point x="327" y="55.5078299101"/>
			<point x="294" y="-94.4921700899" type="curve" smooth="yes"/>
			<point x="287" y="-124.4921700899"/>
			<point x="268" y="-145.4921700899"/>
			<point x="222" y="-145.4921700899" type="curve" smooth="yes"/>
			<point x="162" y="-145.4921700899"/>
			<point x="132" y="-87.4921700899"/>
			<point x="149" y="-2.4921700899" type="curve" smooth="yes"/>
			<point x="175.1002943652" y="134.7448615721"/>
			<point x="308.1856054793" y="346.7990341866"/>
			<point x="459" y="464.5078299101" type="curve" smooth="yes"/>
			<point x="487" y="486.5078299101"/>
			<point x="502" y="491.5078299101"/>
			<point x="517" y="491.5078299101" type="curve" smooth="yes"/>
			<point x="558" y="491.5078299101"/>
			<point x="587" y="450.5078299101"/>
			<point x="587" y="399.5078299101" type="curve" smooth="yes"/>
			<point x="587" y="365.5078299101"/>
			<point x="579" y="338.5078299101"/>
		</contour>
		<contour>
			<point x="176" y="438.5078299101" type="curve" smooth="yes"/>
			<point x="236" y="331.5078299101"/>
			<point x="279" y="321.5078299101"/>
			<point x="347" y="206.5078299101" type="curve" smooth="yes"/>
			<point x="372" y="163.5078299101"/>
			<point x="347" y="80.5078299101"/>
			<point x="296" y="80.5078299101" type="curve" smooth="yes"/>
			<point x="270" y="80.5078299101"/>
			<point x="250" y="91.5078299101"/>
			<point x="238" y="108.5078299101" type="curve" smooth="yes"/>
			<point x="160" y="212.5078299101"/>
			<point x="109.0079248465" y="233.2847820156"/>
			<point x="53" y="310.5078299101" type="curve" smooth="yes"/>
			<point x="33" y="338.5078299101"/>
			<point x="21" y="367.5078299101"/>
			<point x="21" y="410.5078299101" type="curve" smooth="yes"/>
			<point x="21" y="459.1357368868"/>
			<point x="54" y="492.5078299101"/>
			<point x="95" y="492.5078299101" type="curve" smooth="yes"/>
			<point x="127" y="492.5078299101"/>
			<point x="153" y="478.5078299101"/>
		</contour>
	</outline>
</glyph>
<glyph name="bracketleft" format="2">
	<unicode hex="005B"/>
	<advance width="553"/>
	<image fileName="parenleft.png" xScale="2.5963710802" yScale="2.5963710802" xOffset="-3331.5138148068" yOffset="-605.3762351949" color="0,0,0,0.18426"/>
	<outline>
		<contour>
			<point x="432" y="841.3385293177"/>
			<point x="422" y="843.3385293177"/>
			<point x="409" y="843.3385293177" type="curve" smooth="yes"/>
			<point x="347" y="843.3385293177"/>
			<point x="240" y="817.3385293177"/>
			<point x="185" y="817.3385293177" type="curve"/>
			<point x="270" y="889.3385293177" type="line"/>
			<point x="248" y="772.3385293177"/>
			<point x="269" y="531.3385293177"/>
			<point x="263" y="436.3385293177" type="curve" smooth="yes"/>
			<point x="259" y="350.3385293177"/>
			<point x="224" y="158.3385293177"/>
			<point x="284" y="65.3385293177" type="curve"/>
			<point x="189" y="92.3385293177" type="line"/>
			<point x="254" y="104.3385293177"/>
			<point x="295" y="109.3385293177"/>
			<point x="355" y="109.3385293177" type="curve" smooth="yes"/>
			<point x="396" y="109.3385293177"/>
			<point x="431" y="112.3385293177"/>
			<point x="464" y="112.3385293177" type="curve" smooth="yes"/>
			<point x="505" y="112.3385293177"/>
			<point x="533" y="85.3385293177"/>
			<point x="533" y="45.3385293177" type="curve" smooth="yes"/>
			<point x="533" y="-19.6614706823"/>
			<point x="493" y="-58.6614706823"/>
			<point x="411" y="-58.6614706823" type="curve" smooth="yes"/>
			<point x="364" y="-58.6614706823"/>
			<point x="328" y="-59.6614706823"/>
			<point x="293" y="-63.6614706823" type="curve" smooth="yes"/>
			<point x="259" y="-66.6614706823"/>
			<point x="235" y="-71.6614706823"/>
			<point x="211" y="-71.6614706823" type="curve" smooth="yes"/>
			<point x="182" y="-71.6614706823"/>
			<point x="151" y="-55.6614706823"/>
			<point x="136" y="-30.6614706823" type="curve" smooth="yes"/>
			<point x="60" y="88.3385293177"/>
			<point x="81" y="332.3385293177"/>
			<point x="87" y="446.3385293177" type="curve" smooth="yes"/>
			<point x="93" y="547.3385293177"/>
			<point x="74" y="798.3385293177"/>
			<point x="96" y="921.3385293177" type="curve" smooth="yes"/>
			<point x="104" y="963.3385293177"/>
			<point x="141" y="993.3385293177"/>
			<point x="184" y="993.3385293177" type="curve" smooth="yes"/>
			<point x="282" y="993.3385293177"/>
			<point x="375" y="1017.3385293177"/>
			<point x="454" y="1017.3385293177" type="curve" smooth="yes"/>
			<point x="506" y="1017.3385293177"/>
			<point x="531" y="986.3385293177"/>
			<point x="531" y="948.3385293177" type="curve" smooth="yes"/>
			<point x="531" y="904.3385293177"/>
			<point x="505" y="841.3385293177"/>
			<point x="442" y="841.3385293177" type="curve" smooth="yes"/>
		</contour>
	</outline>
</glyph>
<glyph name="a" format="2">
	<unicode hex="0061"/>
	<advance width="704"/>
	<outline>
		<contour>
			<point x="362" y="279.5351164756" type="curve" smooth="yes"/>
			<point x="367" y="313.5351164756"/>
			<point x="399" y="333.5351164756"/>
			<point x="432" y="333.5351164756" type="curve" smooth="yes"/>
			<point x="489" y="333.5351164756"/>
			<point x="533" y="300.5351164756"/>
			<point x="550" y="259.5351164756" type="curve" smooth="yes"/>
			<point x="590" y="172.5351164756"/>
			<point x="606" y="110.5351164756"/>
			<point x="677" y="34.5351164756" type="curve" smooth="yes"/>
			<point x="716" y="-7.4648835244"/>
			<point x="678" y="-119.4648835244"/>
			<point x="602" y="-119.4648835244" type="curve" smooth="yes"/>
			<point x="577" y="-119.4648835244"/>
			<point x="561" y="-108.4648835244"/>
			<point x="551" y="-96.4648835244" type="curve" smooth="yes"/>
			<point x="493" y="-25.4648835244"/>
			<point x="462" y="28.5351164756"/>
			<point x="423" y="136.5351164756" type="curve"/>
			<point x="483" y="142.5351164756" type="line"/>
			<point x="423" y="-60.4648835244"/>
			<point x="315" y="-122.4648835244"/>
			<point x="207" y="-122.4648835244" type="curve" smooth="yes"/>
			<point x="99" y="-122.4648835244"/>
			<point x="25" y="-61.4648835244"/>
			<point x="25" y="30.5351164756" type="curve" smooth="yes"/>
			<point x="25" y="205.5351164756"/>
			<point x="186" y="413.5351164756"/>
			<point x="337" y="413.5351164756" type="curve" smooth="yes"/>
			<point x="393" y="413.5351164756"/>
			<point x="437" y="375.5351164756"/>
			<point x="437" y="307.5351164756" type="curve" smooth="yes"/>
			<point x="437" y="284.5351164756"/>
			<point x="422" y="272.5351164756"/>
			<point x="405" y="268.5351164756" type="curve" smooth="yes"/>
			<point x="281" y="245.5351164756"/>
			<point x="192" y="129.5351164756"/>
			<point x="192" y="14.5351164756" type="curve" smooth="yes"/>
			<point x="192" y="-4.4648835244"/>
			<point x="194" y="-17.4648835244"/>
			<point x="201" y="-39.4648835244" type="curve"/>
			<point x="127" y="74.5351164756" type="line"/>
			<point x="160" y="51.5351164756"/>
			<point x="182" y="45.5351164756"/>
			<point x="214" y="45.5351164756" type="curve" smooth="yes"/>
			<point x="276" y="45.5351164756"/>
			<point x="339" y="125.5351164756"/>
		</contour>
	</outline>
</glyph>
<glyph name="h" format="2">
	<unicode hex="0068"/>
	<advance width="693"/>
	<outline>
		<contour>
			<point x="621" y="58.5310457528" type="curve" smooth="yes"/>
			<point x="666" y="58.5310457528"/>
			<point x="700" y="84.5310457528"/>
			<point x="700" y="118.5310457528" type="curve" smooth="yes"/>
			<point x="700" y="134.5310457528"/>
			<point x="695" y="149.5310457528"/>
			<point x="688" y="163.5310457528" type="curve" smooth="yes"/>
			<point x="666.0729148686" y="202.5125304308"/>
			<point x="630.5061592477" y="242.2416206166"/>
			<point x="617" y="378.5310457528" type="curve" smooth="yes"/>
			<point x="599.9963923395" y="563.5703055877"/>
			<point x="564" y="672.5310457528"/>
			<point x="441" y="672.5310457528" type="curve" smooth="yes"/>
			<point x="342.9230769231" y="672.5310457528"/>
			<point x="265" y="583.5310457528"/>
			<point x="185" y="395.5310457528" type="curve"/>
			<point x="230" y="334.5310457528" type="line"/>
			<point x="230" y="557.5310457528"/>
			<point x="252" y="656.5310457528"/>
			<point x="252" y="737.5310457528" type="curve" smooth="yes"/>
			<point x="252" y="880.5310457528"/>
			<point x="188" y="920.5310457528"/>
			<point x="136" y="920.5310457528" type="curve" smooth="yes"/>
			<point x="82" y="920.5310457528"/>
			<point x="63" y="891.5310457528"/>
			<point x="63" y="861.5310457528" type="curve" smooth="yes"/>
			<point x="63" y="820.5310457528"/>
			<point x="78" y="792.5310457528"/>
			<point x="78" y="715.5310457528" type="curve" smooth="yes"/>
			<point x="78" y="599.5310457528"/>
			<point x="55" y="456.5310457528"/>
			<point x="55" y="245.5310457528" type="curve" smooth="yes"/>
			<point x="55" y="170.5310457528"/>
			<point x="103" y="100.5310457528"/>
			<point x="163" y="100.5310457528" type="curve" smooth="yes"/>
			<point x="192" y="100.5310457528"/>
			<point x="213" y="111.5310457528"/>
			<point x="232" y="152.5310457528" type="curve" smooth="yes"/>
			<point x="314.8406194842" y="335.6524151388"/>
			<point x="380" y="443.5310457528"/>
			<point x="414" y="464.5310457528" type="curve"/>
			<point x="430" y="428.5310457528"/>
			<point x="443.9764793473" y="379.9342569418"/>
			<point x="451" y="259.5310457528" type="curve" smooth="yes"/>
			<point x="458.486118487" y="149.7346412768"/>
			<point x="516.2201257862" y="58.5310457528"/>
		</contour>
	</outline>
</glyph>
<glyph name="i" format="2">
	<unicode hex="0069"/>
	<advance width="348"/>
	<outline>
		<contour>
			<point x="179" y="181.4794956684" type="curve" smooth="yes"/>
			<point x="222.96875" y="181.4794956684"/>
			<point x="246" y="208.4794956684"/>
			<point x="246" y="253.4794956684" type="curve" smooth="yes"/>
			<point x="246" y="296.8732633738"/>
			<point x="258.6290114349" y="435.2227638367"/>
			<point x="258" y="475.4794956684" type="curve" smooth="yes"/>
			<point x="257.1801426613" y="535.3290813934"/>
			<point x="219" y="566.4794956684"/>
			<point x="173" y="566.4794956684" type="curve" smooth="yes"/>
			<point x="120.3504273504" y="566.4794956684"/>
			<point x="61" y="508.5294956684"/>
			<point x="61" y="444.4794956684" type="curve" smooth="yes"/>
			<point x="61" y="401.0400052225"/>
			<point x="65" y="375.5906067795"/>
			<point x="65" y="289.4794956684" type="curve" smooth="yes"/>
			<point x="65" y="232.4794956684"/>
			<point x="115.6666666667" y="181.4794956684"/>
		</contour>
		<contour>
			<point x="185" y="780.4794956684" type="curve" smooth="yes"/>
			<point x="243" y="780.4794956684"/>
			<point x="265" y="817.4794956684"/>
			<point x="265" y="854.4794956684" type="curve" smooth="yes"/>
			<point x="265" y="923.4794956684"/>
			<point x="215" y="1008.4794956684"/>
			<point x="130" y="1008.4794956684" type="curve" smooth="yes"/>
			<point x="83" y="1008.4794956684"/>
			<point x="44" y="968.4794956684"/>
			<point x="44" y="913.4794956684" type="curve" smooth="yes"/>
			<point x="44" y="844.4794956684"/>
			<point x="108" y="780.4794956684"/>
		</contour>
	</outline>
</glyph>
<glyph name="k" format="2">
	<unicode hex="006B"/>
	<advance width="678"/>
	<outline>
		<contour>
			<point x="555" y="64.0416803116" type="curve" smooth="yes"/>
			<point x="602" y="64.0416803116"/>
			<point x="627" y="92.0416803116"/>
			<point x="627" y="136.0416803116" type="curve" smooth="yes"/>
			<point x="627" y="185.0416803116"/>
			<point x="601" y="237.0416803116"/>
			<point x="533" y="251.0416803116" type="curve" smooth="yes"/>
			<point x="405" y="282.0416803116"/>
			<point x="363" y="304.0416803116"/>
			<point x="363" y="320.0416803116" type="curve" smooth="yes"/>
			<point x="363" y="336.0888501229"/>
			<point x="415" y="376.0416803116"/>
			<point x="498" y="401.0416803116" type="curve" smooth="yes"/>
			<point x="565" y="421.0416803116"/>
			<point x="582" y="442.0416803116"/>
			<point x="582" y="478.0416803116" type="curve" smooth="yes"/>
			<point x="582" y="539.0416803116"/>
			<point x="544" y="573.0416803116"/>
			<point x="486" y="573.0416803116" type="curve" smooth="yes"/>
			<point x="389" y="573.0416803116"/>
			<point x="172" y="434.7094655465"/>
			<point x="172" y="300.0416803116" type="curve" smooth="yes"/>
			<point x="172" y="209.0416803116"/>
			<point x="414" y="64.0416803116"/>
		</contour>
		<contour>
			<point x="139" y="881.0416803116" type="curve" smooth="yes"/>
			<point x="94" y="881.0416803116"/>
			<point x="73" y="857.0416803116"/>
			<point x="73" y="812.0416803116" type="curve" smooth="yes"/>
			<point x="73" y="776.0416803116"/>
			<point x="82" y="745.0416803116"/>
			<point x="82" y="665.0416803116" type="curve" smooth="yes"/>
			<point x="82" y="476.0416803116"/>
			<point x="55" y="294.0416803116"/>
			<point x="55" y="208.0416803116" type="curve" smooth="yes"/>
			<point x="55" y="90.0416803116"/>
			<point x="110" y="61.0416803116"/>
			<point x="164" y="61.0416803116" type="curve" smooth="yes"/>
			<point x="206" y="61.0416803116"/>
			<point x="229" y="80.0416803116"/>
			<point x="229" y="124.0416803116" type="curve" smooth="yes"/>
			<point x="229" y="173.0416803116"/>
			<point x="224" y="216.0416803116"/>
			<point x="224" y="280.0416803116" type="curve" smooth="yes"/>
			<point x="224" y="396.0416803116"/>
			<point x="261" y="523.0416803116"/>
			<point x="261" y="667.0416803116" type="curve" smooth="yes"/>
			<point x="261" y="823.0416803116"/>
			<point x="221" y="881.0416803116"/>
		</contour>
	</outline>
</glyph>
<glyph name="m" format="2">
	<unicode hex="006D"/>
	<advance width="977"/>
	<outline>
		<contour>
			<point x="221" y="425.5771275447" type="curve" smooth="yes"/>
			<point x="221" y="315.5771275447"/>
			<point x="147" y="339.5771275447"/>
			<point x="175" y="420.5771275447" type="curve" smooth="yes"/>
			<point x="199" y="488.5771275447"/>
			<point x="269" y="546.5771275447"/>
			<point x="355" y="546.5771275447" type="curve" smooth="yes"/>
			<point x="426" y="546.5771275447"/>
			<point x="452" y="504.5771275447"/>
			<point x="477" y="449.5771275447" type="curve" smooth="yes"/>
			<point x="492" y="413.5771275447"/>
			<point x="505" y="373.5771275447"/>
			<point x="510" y="344.5771275447" type="curve" smooth="yes"/>
			<point x="526" y="260.5771275447"/>
			<point x="427" y="236.5771275447"/>
			<point x="461" y="344.5771275447" type="curve" smooth="yes"/>
			<point x="497" y="459.5771275447"/>
			<point x="592" y="544.5771275447"/>
			<point x="700" y="544.5771275447" type="curve" smooth="yes"/>
			<point x="794" y="544.5771275447"/>
			<point x="845" y="487.5771275447"/>
			<point x="870" y="351.5771275447" type="curve" smooth="yes"/>
			<point x="895" y="213.5771275447"/>
			<point x="919" y="202.5771275447"/>
			<point x="919" y="163.5771275447" type="curve" smooth="yes"/>
			<point x="919" y="127.5771275447"/>
			<point x="897" y="100.5771275447"/>
			<point x="850" y="100.5771275447" type="curve" smooth="yes"/>
			<point x="777" y="100.5771275447"/>
			<point x="723" y="132.5771275447"/>
			<point x="706" y="223.5771275447" type="curve" smooth="yes"/>
			<point x="682" y="361.5771275447"/>
			<point x="676" y="372.5771275447"/>
			<point x="645" y="406.5771275447" type="curve" smooth="yes"/>
			<point x="613" y="441.5771275447"/>
			<point x="759" y="433.5771275447"/>
			<point x="702" y="393.5771275447" type="curve" smooth="yes"/>
			<point x="639" y="349.5771275447"/>
			<point x="603" y="276.5771275447"/>
			<point x="573" y="164.5771275447" type="curve" smooth="yes"/>
			<point x="564" y="125.5771275447"/>
			<point x="535" y="105.5771275447"/>
			<point x="496" y="105.5771275447" type="curve" smooth="yes"/>
			<point x="410" y="105.5771275447"/>
			<point x="388" y="157.5771275447"/>
			<point x="368" y="224.5771275447" type="curve" smooth="yes"/>
			<point x="337" y="330.5771275447"/>
			<point x="330" y="345.5771275447"/>
			<point x="299" y="388.5771275447" type="curve" smooth="yes"/>
			<point x="280" y="415.5771275447"/>
			<point x="345" y="399.5771275447"/>
			<point x="323" y="368.5771275447" type="curve" smooth="yes"/>
			<point x="276" y="300.5771275447"/>
			<point x="260" y="244.5771275447"/>
			<point x="246" y="155.5771275447" type="curve" smooth="yes"/>
			<point x="240" y="123.5771275447"/>
			<point x="218" y="105.5771275447"/>
			<point x="172" y="105.5771275447" type="curve" smooth="yes"/>
			<point x="83.65" y="105.5771275447"/>
			<point x="58" y="177.0939060682"/>
			<point x="58" y="249.5771275447" type="curve" smooth="yes"/>
			<point x="58" y="312.5771275447"/>
			<point x="68" y="341.5771275447"/>
			<point x="68" y="403.5771275447" type="curve" smooth="yes"/>
			<point x="68" y="431.5771275447"/>
			<point x="63" y="456.5771275447"/>
			<point x="63" y="480.5771275447" type="curve" smooth="yes"/>
			<point x="63" y="507.5771275447"/>
			<point x="83" y="531.5771275447"/>
			<point x="122" y="531.5771275447" type="curve" smooth="yes"/>
			<point x="191.7714285714" y="531.5771275447"/>
			<point x="221" y="463.2886660062"/>
		</contour>
	</outline>
</glyph>
<glyph name="p" format="2">
	<unicode hex="0070"/>
	<advance width="610"/>
	<outline>
		<contour>
			<point x="211" y="358" type="curve" smooth="yes"/>
			<point x="218" y="214"/>
			<point x="257" y="92"/>
			<point x="257" y="-46" type="curve" smooth="yes"/>
			<point x="257" y="-144"/>
			<point x="250" y="-261"/>
			<point x="157" y="-261" type="curve" smooth="yes"/>
			<point x="114" y="-261"/>
			<point x="63" y="-226"/>
			<point x="63" y="-151" type="curve" smooth="yes"/>
			<point x="63" y="-88"/>
			<point x="75" y="-64"/>
			<point x="75" y="2" type="curve" smooth="yes"/>
			<point x="75" y="153"/>
			<point x="36" y="243"/>
			<point x="25" y="383" type="curve" smooth="yes"/>
			<point x="23" y="412"/>
			<point x="32" y="456"/>
			<point x="80" y="456" type="curve" smooth="yes"/>
			<point x="145" y="456"/>
			<point x="208" y="411"/>
		</contour>
		<contour>
			<point x="233" y="498" type="curve" smooth="yes"/>
			<point x="422" y="498"/>
			<point x="584" y="403"/>
			<point x="584" y="215" type="curve" smooth="yes"/>
			<point x="584" y="127"/>
			<point x="490" y="40"/>
			<point x="362" y="40" type="curve" smooth="yes"/>
			<point x="228" y="40"/>
			<point x="126" y="105"/>
			<point x="126" y="181" type="curve" smooth="yes"/>
			<point x="126" y="206"/>
			<point x="150" y="232"/>
			<point x="174" y="232" type="curve" smooth="yes"/>
			<point x="225" y="232"/>
			<point x="260" y="203"/>
			<point x="332" y="203" type="curve" smooth="yes"/>
			<point x="373" y="203"/>
			<point x="402" y="222"/>
			<point x="402" y="246" type="curve" smooth="yes"/>
			<point x="402" y="279"/>
			<point x="356" y="323"/>
			<point x="255" y="323" type="curve" smooth="yes"/>
			<point x="214" y="323"/>
			<point x="205.4909090909" y="318"/>
			<point x="178" y="318" type="curve" smooth="yes"/>
			<point x="133" y="318"/>
			<point x="84" y="358"/>
			<point x="84" y="407" type="curve" smooth="yes"/>
			<point x="84" y="479"/>
			<point x="135" y="498"/>
		</contour>
	</outline>
</glyph>
<glyph name="q" format="2">
	<unicode hex="0071"/>
	<advance width="618"/>
	<outline>
		<contour>
			<point x="423" y="143.5458477566" type="curve" smooth="yes"/>
			<point x="466" y="143.5458477566"/>
			<point x="500" y="176.5458477566"/>
			<point x="500" y="213.5458477566" type="curve" smooth="yes"/>
			<point x="500" y="291.5458477566"/>
			<point x="437" y="363.5458477566"/>
			<point x="339" y="363.5458477566" type="curve" smooth="yes"/>
			<point x="179" y="363.5458477566"/>
			<point x="15" y="198.5458477566"/>
			<point x="15" y="46.5458477566" type="curve" smooth="yes"/>
			<point x="15" y="-84.4541522434"/>
			<point x="88" y="-171.4541522434"/>
			<point x="235" y="-171.4541522434" type="curve" smooth="yes"/>
			<point x="319" y="-171.4541522434"/>
			<point x="373" y="-148.4541522434"/>
			<point x="437" y="-104.4541522434" type="curve" smooth="yes"/>
			<point x="510" y="-54.4541522434"/>
			<point x="408" y="-43.4541522434"/>
			<point x="406" y="-90.4541522434" type="curve" smooth="yes"/>
			<point x="402" y="-177.4541522434"/>
			<point x="405" y="-260.4541522434"/>
			<point x="411" y="-329.4541522434" type="curve" smooth="yes"/>
			<point x="414" y="-363.4541522434"/>
			<point x="451" y="-421.4541522434"/>
			<point x="505" y="-421.4541522434" type="curve" smooth="yes"/>
			<point x="550" y="-421.4541522434"/>
			<point x="597" y="-395.4541522434"/>
			<point x="640" y="-357.4541522434" type="curve" smooth="yes"/>
			<point x="652" y="-346.4541522434"/>
			<point x="660" y="-330.4541522434"/>
			<point x="660" y="-312.4541522434" type="curve" smooth="yes"/>
			<point x="660" y="-241.4541522434"/>
			<point x="638" y="-182.4541522434"/>
			<point x="609" y="-182.4541522434" type="curve" smooth="yes"/>
			<point x="591" y="-182.4541522434"/>
			<point x="578" y="-196.4541522434"/>
			<point x="557" y="-208.4541522434" type="curve" smooth="yes"/>
			<point x="529" y="-224.4541522434"/>
			<point x="581" y="-266.4541522434"/>
			<point x="578" y="-220.4541522434" type="curve" smooth="yes"/>
			<point x="572" y="-119.4541522434"/>
			<point x="571" y="-67.4541522434"/>
			<point x="572" y="-10.4541522434" type="curve"/>
			<point x="577" y="9.5458477566"/>
			<point x="602" y="56.5458477566"/>
			<point x="602" y="122.5458477566" type="curve" smooth="yes"/>
			<point x="602" y="170.5458477566"/>
			<point x="561" y="206.5458477566"/>
			<point x="494" y="206.5458477566" type="curve" smooth="yes"/>
			<point x="472" y="206.5458477566"/>
			<point x="460" y="194.5458477566"/>
			<point x="454" y="175.5458477566" type="curve" smooth="yes"/>
			<point x="417" y="70.5458477566"/>
			<point x="336" y="-1.4541522434"/>
			<point x="235" y="-1.4541522434" type="curve" smooth="yes"/>
			<point x="208" y="-1.4541522434"/>
			<point x="192" y="12.5458477566"/>
			<point x="192" y="37.5458477566" type="curve" smooth="yes"/>
			<point x="192" y="97.5458477566"/>
			<point x="285" y="192.5458477566"/>
			<point x="339" y="192.5458477566" type="curve" smooth="yes"/>
			<point x="362" y="192.5458477566"/>
			<point x="373" y="186.5458477566"/>
			<point x="382" y="171.5458477566" type="curve" smooth="yes"/>
			<point x="394" y="150.5458477566"/>
			<point x="408" y="143.5458477566"/>
		</contour>
	</outline>
</glyph>
<glyph name="section" format="2">
	<unicode hex="00A7"/>
	<advance width="603"/>
	<outline>
		<contour>
			<point x="262" y="-447.1137631598" type="curve" smooth="yes"/>
			<point x="459" y="-447.1137631598"/>
			<point x="556" y="-392.1137631598"/>
			<point x="556" y="-270.1137631598" type="curve" smooth="yes"/>
			<point x="556" y="-76.1137631598"/>
			<point x="208" y="-59.1137631598"/>
			<point x="208" y="22.8862368402" type="curve" smooth="yes"/>
			<point x="208" y="47.8862368402"/>
			<point x="247" y="78.8862368402"/>
			<point x="332" y="86.8862368402" type="curve"/>
			<point x="238" y="171.8862368402" type="line"/>
			<point x="116" y="157.8862368402"/>
			<point x="47" y="103.8862368402"/>
			<point x="47" y="16.8862368402" type="curve" smooth="yes"/>
			<point x="47" y="-181.1137631598"/>
			<point x="342" y="-202.1137631598"/>
			<point x="375" y="-266.1137631598" type="curve"/>
			<point x="330" y="-277.1137631598"/>
			<point x="304" y="-280.1137631598"/>
			<point x="241" y="-280.1137631598" type="curve" smooth="yes"/>
			<point x="166" y="-280.1137631598"/>
			<point x="148" y="-253.1137631598"/>
			<point x="112" y="-253.1137631598" type="curve" smooth="yes"/>
			<point x="70" y="-253.1137631598"/>
			<point x="60" y="-274.1137631598"/>
			<point x="60" y="-309.1137631598" type="curve" smooth="yes"/>
			<point x="60" y="-379.1137631598"/>
			<point x="131" y="-447.1137631598"/>
		</contour>
		<contour>
			<point x="372" y="-145.1137631598" type="line"/>
			<point x="495" y="-145.1137631598"/>
			<point x="566" y="-87.1137631598"/>
			<point x="566" y="0.8862368402" type="curve" smooth="yes"/>
			<point x="566" y="180.8862368402"/>
			<point x="236" y="202.8862368402"/>
			<point x="236" y="263.8862368402" type="curve" smooth="yes"/>
			<point x="236" y="293.8862368402"/>
			<point x="341" y="327.8862368402"/>
			<point x="490" y="358.8862368402" type="curve" smooth="yes"/>
			<point x="522" y="364.8862368402"/>
			<point x="544" y="393.8862368402"/>
			<point x="544" y="427.8862368402" type="curve" smooth="yes"/>
			<point x="544" y="476.8862368402"/>
			<point x="520" y="522.8862368402"/>
			<point x="448" y="522.8862368402" type="curve" smooth="yes"/>
			<point x="325" y="522.8862368402"/>
			<point x="57" y="424.8862368402"/>
			<point x="57" y="267.8862368402" type="curve" smooth="yes"/>
			<point x="57" y="69.8862368402"/>
			<point x="372" y="49.8862368402"/>
			<point x="405" y="-5.1137631598" type="curve"/>
			<point x="381" y="-34.1137631598"/>
			<point x="338" y="-49.1137631598"/>
			<point x="256" y="-54.1137631598" type="curve"/>
		</contour>
	</outline>
</glyph>
<glyph name="quoteright" format="2">
	<unicode hex="2019"/>
	<advance width="271"/>
	<image fileName="quoteleft.png" xScale="2.7154088417" yScale="2.7154088417" xOffset="-2596.4273808669" yOffset="-445.4316255776" color="0,0,0,0.31832"/>
	<outline>
		<contour>
			<point x="178" y="678.3432405399" type="curve" smooth="yes"/>
			<point x="144" y="678.3432405399"/>
			<point x="125" y="664.3432405399"/>
			<point x="109" y="628.3432405399" type="curve" smooth="yes"/>
			<point x="77" y="559.3432405399"/>
			<point x="49" y="466.3432405399"/>
			<point x="49" y="398.3432405399" type="curve" smooth="yes"/>
			<point x="49" y="336.3432405399"/>
			<point x="76" y="280.3432405399"/>
			<point x="120" y="280.3432405399" type="curve" smooth="yes"/>
			<point x="159" y="280.3432405399"/>
			<point x="180" y="309.3432405399"/>
			<point x="200" y="350.3432405399" type="curve" smooth="yes"/>
			<point x="221" y="395.3432405399"/>
			<point x="247" y="436.3432405399"/>
			<point x="273" y="508.3432405399" type="curve" smooth="yes"/>
			<point x="284" y="538.3432405399"/>
			<point x="289" y="559.3432405399"/>
			<point x="289" y="582.3432405399" type="curve" smooth="yes"/>
			<point x="289" y="627.3432405399"/>
			<point x="230" y="678.3432405399"/>
		</contour>
	</outline>
</glyph>
<glyph name="daggerdbl" format="2">
	<unicode hex="2021"/>
	<advance width="619"/>
	<outline>
		<contour>
			<point x="412" y="503.4309290213" type="curve" smooth="yes"/>
			<point x="412" y="400.4309290213"/>
			<point x="387" y="282.4309290213"/>
			<point x="387" y="140.4309290213" type="curve" smooth="yes"/>
			<point x="387" y="-96.5690709787"/>
			<point x="413" y="-162.5690709787"/>
			<point x="413" y="-254.5690709787" type="curve" smooth="yes"/>
			<point x="413" y="-312.5690709787"/>
			<point x="384" y="-340.5690709787"/>
			<point x="338" y="-340.5690709787" type="curve" smooth="yes"/>
			<point x="294" y="-340.5690709787"/>
			<point x="264" y="-311.5690709787"/>
			<point x="252" y="-248.5690709787" type="curve" smooth="yes"/>
			<point x="226" y="-112.5690709787"/>
			<point x="220" y="-24.5690709787"/>
			<point x="220" y="117.4309290213" type="curve" smooth="yes"/>
			<point x="220" y="307.4309290213"/>
			<point x="250" y="408.4309290213"/>
			<point x="245" y="566.4309290213" type="curve" smooth="yes"/>
			<point x="243" y="611.4309290213"/>
			<point x="258" y="641.4309290213"/>
			<point x="307" y="641.4309290213" type="curve" smooth="yes"/>
			<point x="372" y="641.4309290213"/>
			<point x="412" y="601.4309290213"/>
		</contour>
		<contour>
			<point x="232" y="297.4309290213"/>
			<point x="164" y="247.4309290213"/>
			<point x="92" y="247.4309290213" type="curve" smooth="yes"/>
			<point x="42" y="247.4309290213"/>
			<point x="15" y="286.4309290213"/>
			<point x="15" y="333.4309290213" type="curve" smooth="yes"/>
			<point x="15" y="373.4309290213"/>
			<point x="28" y="403.4309290213"/>
			<point x="101" y="416.4309290213" type="curve" smooth="yes"/>
			<point x="224" y="438.4309290213"/>
			<point x="361" y="448.4309290213"/>
			<point x="479" y="448.4309290213" type="curve" smooth="yes"/>
			<point x="558" y="448.4309290213"/>
			<point x="604" y="412.4309290213"/>
			<point x="604" y="355.4309290213" type="curve" smooth="yes"/>
			<point x="604" y="321.4309290213"/>
			<point x="589" y="297.4309290213"/>
			<point x="535" y="297.4309290213" type="curve" smooth="yes"/>
		</contour>
		<contour>
			<point x="238" y="-52.5690709787"/>
			<point x="160" y="-90.5690709787"/>
			<point x="92" y="-90.5690709787" type="curve" smooth="yes"/>
			<point x="42" y="-90.5690709787"/>
			<point x="15" y="-51.5690709787"/>
			<point x="15" y="-4.5690709787" type="curve" smooth="yes"/>
			<point x="15" y="35.4309290213"/>
			<point x="31" y="65.4309290213"/>
			<point x="107" y="76.4309290213" type="curve" smooth="yes"/>
			<point x="235" y="94.4309290213"/>
			<point x="361" y="98.4309290213"/>
			<point x="479" y="98.4309290213" type="curve" smooth="yes"/>
			<point x="558" y="98.4309290213"/>
			<point x="604" y="62.4309290213"/>
			<point x="604" y="5.4309290213" type="curve" smooth="yes"/>
			<point x="604" y="-28.5690709787"/>
			<point x="589" y="-52.5690709787"/>
			<point x="535" y="-52.5690709787" type="curve" smooth="yes"/>
		</contour>
	</outline>
</glyph>
<glyph name="second" format="2">
	<unicode hex="2033"/>
	<advance width="556"/>
	<outline>
		<contour>
			<point x="361" y="288.8399142523" type="curve" smooth="yes"/>
			<point x="401" y="288.8399142523"/>
			<point x="429" y="309.8399142523"/>
			<point x="451" y="344.8399142523" type="curve" smooth="yes"/>
			<point x="490" y="407.8399142523"/>
			<point x="520" y="490.8399142523"/>
			<point x="520" y="552.8399142523" type="curve" smooth="yes"/>
			<point x="520" y="617.8399142523"/>
			<point x="475" y="654.8399142523"/>
			<point x="407" y="654.8399142523" type="curve" smooth="yes"/>
			<point x="350" y="654.8399142523"/>
			<point x="325" y="615.8399142523"/>
			<point x="325" y="551.8399142523" type="curve" smooth="yes"/>
			<point x="325" y="408.8399142523"/>
			<point x="300" y="391.8399142523"/>
			<point x="300" y="348.8399142523" type="curve" smooth="yes"/>
			<point x="300" y="313.8399142523"/>
			<point x="317" y="288.8399142523"/>
		</contour>
		<contour>
			<point x="97" y="288.8399142523" type="curve" smooth="yes"/>
			<point x="137" y="288.8399142523"/>
			<point x="165" y="309.8399142523"/>
			<point x="187" y="344.8399142523" type="curve" smooth="yes"/>
			<point x="226" y="407.8399142523"/>
			<point x="256" y="490.8399142523"/>
			<point x="256" y="552.8399142523" type="curve" smooth="yes"/>
			<point x="256" y="617.8399142523"/>
			<point x="211" y="654.8399142523"/>
			<point x="143" y="654.8399142523" type="curve" smooth="yes"/>
			<point x="86" y="654.8399142523"/>
			<point x="61" y="615.8399142523"/>
			<point x="61" y="551.8399142523" type="curve" smooth="yes"/>
			<point x="61" y="423.8399142523"/>
			<point x="36" y="393.8399142523"/>
			<point x="36" y="348.8399142523" type="curve" smooth="yes"/>
			<point x="36" y="313.8399142523"/>
			<point x="53" y="288.8399142523"/>
		</contour>
	</outline>
</glyph>
<glyph name="at.case" format="2">
	<advance width="924"/>
	<outline>
		<contour>
			<point x="534" y="305.1937431103" type="curve" smooth="yes"/>
			<point x="493" y="292.1937431103"/>
			<point x="454" y="254.1937431103"/>
			<point x="454" y="220.1937431103" type="curve" smooth="yes"/>
			<point x="454" y="202.1937431103"/>
			<point x="461" y="186.1937431103"/>
			<point x="475" y="174.1937431103" type="curve"/>
			<point x="353" y="273.1937431103" type="line"/>
			<point x="376" y="259.1937431103"/>
			<point x="393" y="256.1937431103"/>
			<point x="411" y="256.1937431103" type="curve" smooth="yes"/>
			<point x="427" y="256.1937431103"/>
			<point x="435" y="269.1937431103"/>
			<point x="459" y="297.1937431103" type="curve" smooth="yes"/>
			<point x="489" y="334.1937431103"/>
			<point x="523" y="359.1937431103"/>
			<point x="575" y="359.1937431103" type="curve" smooth="yes"/>
			<point x="610" y="359.1937431103"/>
			<point x="641" y="346.1937431103"/>
			<point x="663" y="314.1937431103" type="curve" smooth="yes"/>
			<point x="694" y="268.1937431103"/>
			<point x="704" y="268.1937431103"/>
			<point x="712" y="268.1937431103" type="curve"/>
			<point x="717" y="268.1937431103"/>
			<point x="720" y="276.1937431103"/>
			<point x="720" y="282.1937431103" type="curve" smooth="yes"/>
			<point x="720" y="387.1937431103"/>
			<point x="635" y="557.1937431103"/>
			<point x="515" y="557.1937431103" type="curve" smooth="yes"/>
			<point x="354" y="557.1937431103"/>
			<point x="204" y="411.1937431103"/>
			<point x="204" y="262.1937431103" type="curve" smooth="yes"/>
			<point x="204" y="93.1937431103"/>
			<point x="358" y="9.1937431103"/>
			<point x="515" y="9.1937431103" type="curve" smooth="yes"/>
			<point x="653" y="9.1937431103"/>
			<point x="709" y="47.1937431103"/>
			<point x="749" y="47.1937431103" type="curve" smooth="yes"/>
			<point x="802" y="47.1937431103"/>
			<point x="833" y="8.1937431103"/>
			<point x="833" y="-37.8062568897" type="curve" smooth="yes"/>
			<point x="833" y="-71.8062568897"/>
			<point x="813" y="-103.8062568897"/>
			<point x="775" y="-118.8062568897" type="curve" smooth="yes"/>
			<point x="705" y="-145.8062568897"/>
			<point x="636" y="-159.8062568897"/>
			<point x="515" y="-159.8062568897" type="curve" smooth="yes"/>
			<point x="254" y="-159.8062568897"/>
			<point x="35" y="1.1937431103"/>
			<point x="35" y="262.1937431103" type="curve" smooth="yes"/>
			<point x="35" y="491.1937431103"/>
			<point x="262" y="727.1937431103"/>
			<point x="515" y="727.1937431103" type="curve" smooth="yes"/>
			<point x="761" y="727.1937431103"/>
			<point x="889" y="439.1937431103"/>
			<point x="889" y="282.1937431103" type="curve" smooth="yes"/>
			<point x="889" y="161.1937431103"/>
			<point x="817" y="99.1937431103"/>
			<point x="733" y="99.1937431103" type="curve" smooth="yes"/>
			<point x="683" y="99.1937431103"/>
			<point x="615" y="109.1937431103"/>
			<point x="539" y="218.1937431103" type="curve"/>
			<point x="592" y="215.1937431103" type="line"/>
			<point x="559" y="146.1937431103"/>
			<point x="511" y="106.1937431103"/>
			<point x="433" y="106.1937431103" type="curve" smooth="yes"/>
			<point x="352" y="106.1937431103"/>
			<point x="300" y="146.1937431103"/>
			<point x="300" y="242.1937431103" type="curve" smooth="yes"/>
			<point x="300" y="357.1937431103"/>
			<point x="427" y="470.1937431103"/>
			<point x="504" y="470.1937431103" type="curve" smooth="yes"/>
			<point x="560" y="470.1937431103"/>
			<point x="589" y="433.1937431103"/>
			<point x="589" y="386.1937431103" type="curve" smooth="yes"/>
			<point x="589" y="351.1937431103"/>
			<point x="568" y="317.1937431103"/>
		</contour>
	</outline>
</glyph>
